<mxfile host="Electron" agent="Mozilla/5.0 (Windows NT 10.0; Win64; x64) AppleWebKit/537.36 (KHTML, like Gecko) draw.io/24.7.17 Chrome/128.0.6613.36 Electron/32.0.1 Safari/537.36" version="24.7.17">
  <diagram name="第 1 页" id="9lEerHl4fgUS5mECwNXF">
    <mxGraphModel dx="2062" dy="731" grid="1" gridSize="10" guides="1" tooltips="1" connect="1" arrows="1" fold="1" page="1" pageScale="1" pageWidth="827" pageHeight="1169" math="0" shadow="0">
      <root>
        <mxCell id="0" />
        <mxCell id="1" parent="0" />
        <mxCell id="-mNEIIxIsV1NqQYjcMDq-34" value="CSDB Server" style="rounded=1;whiteSpace=wrap;html=1;labelPosition=center;verticalLabelPosition=top;align=center;verticalAlign=bottom;" vertex="1" parent="1">
          <mxGeometry x="-10" y="390" width="820" height="420" as="geometry" />
        </mxCell>
        <mxCell id="-mNEIIxIsV1NqQYjcMDq-21" value="" style="group" vertex="1" connectable="0" parent="1">
          <mxGeometry x="370" y="460" width="410" height="260" as="geometry" />
        </mxCell>
        <mxCell id="-mNEIIxIsV1NqQYjcMDq-3" value="存储模块" style="rounded=0;whiteSpace=wrap;html=1;labelPosition=center;verticalLabelPosition=top;align=center;verticalAlign=bottom;" vertex="1" parent="-mNEIIxIsV1NqQYjcMDq-21">
          <mxGeometry width="410" height="260" as="geometry" />
        </mxCell>
        <mxCell id="-mNEIIxIsV1NqQYjcMDq-15" value="" style="group" vertex="1" connectable="0" parent="-mNEIIxIsV1NqQYjcMDq-21">
          <mxGeometry x="20" y="40" width="140" height="190" as="geometry" />
        </mxCell>
        <mxCell id="-mNEIIxIsV1NqQYjcMDq-6" value="内存模块" style="rounded=0;whiteSpace=wrap;html=1;labelPosition=center;verticalLabelPosition=top;align=center;verticalAlign=bottom;" vertex="1" parent="-mNEIIxIsV1NqQYjcMDq-15">
          <mxGeometry width="140" height="190" as="geometry" />
        </mxCell>
        <mxCell id="-mNEIIxIsV1NqQYjcMDq-7" value="页（Page 1）" style="rounded=0;whiteSpace=wrap;html=1;" vertex="1" parent="-mNEIIxIsV1NqQYjcMDq-15">
          <mxGeometry x="15" y="20" width="110" height="35" as="geometry" />
        </mxCell>
        <mxCell id="-mNEIIxIsV1NqQYjcMDq-20" value="" style="edgeStyle=orthogonalEdgeStyle;rounded=0;orthogonalLoop=1;jettySize=auto;html=1;" edge="1" parent="-mNEIIxIsV1NqQYjcMDq-15" source="-mNEIIxIsV1NqQYjcMDq-8" target="-mNEIIxIsV1NqQYjcMDq-9">
          <mxGeometry relative="1" as="geometry" />
        </mxCell>
        <mxCell id="-mNEIIxIsV1NqQYjcMDq-8" value="页（Page 2）" style="rounded=0;whiteSpace=wrap;html=1;" vertex="1" parent="-mNEIIxIsV1NqQYjcMDq-15">
          <mxGeometry x="15" y="70" width="110" height="35" as="geometry" />
        </mxCell>
        <mxCell id="-mNEIIxIsV1NqQYjcMDq-9" value="页（Page 3）" style="rounded=0;whiteSpace=wrap;html=1;" vertex="1" parent="-mNEIIxIsV1NqQYjcMDq-15">
          <mxGeometry x="15" y="120" width="110" height="35" as="geometry" />
        </mxCell>
        <mxCell id="-mNEIIxIsV1NqQYjcMDq-16" value="" style="group" vertex="1" connectable="0" parent="-mNEIIxIsV1NqQYjcMDq-21">
          <mxGeometry x="250" y="40" width="140" height="190" as="geometry" />
        </mxCell>
        <mxCell id="-mNEIIxIsV1NqQYjcMDq-4" value="持久化模块" style="rounded=0;whiteSpace=wrap;html=1;labelPosition=center;verticalLabelPosition=top;align=center;verticalAlign=bottom;" vertex="1" parent="-mNEIIxIsV1NqQYjcMDq-16">
          <mxGeometry width="140" height="190" as="geometry" />
        </mxCell>
        <mxCell id="-mNEIIxIsV1NqQYjcMDq-10" value="页（Page 1）" style="rounded=0;whiteSpace=wrap;html=1;" vertex="1" parent="-mNEIIxIsV1NqQYjcMDq-16">
          <mxGeometry x="15" y="20" width="110" height="35" as="geometry" />
        </mxCell>
        <mxCell id="-mNEIIxIsV1NqQYjcMDq-11" value="页（Page 2）" style="rounded=0;whiteSpace=wrap;html=1;" vertex="1" parent="-mNEIIxIsV1NqQYjcMDq-16">
          <mxGeometry x="15" y="70" width="110" height="35" as="geometry" />
        </mxCell>
        <mxCell id="-mNEIIxIsV1NqQYjcMDq-12" value="页（Page 3）" style="rounded=0;whiteSpace=wrap;html=1;" vertex="1" parent="-mNEIIxIsV1NqQYjcMDq-16">
          <mxGeometry x="15" y="120" width="110" height="35" as="geometry" />
        </mxCell>
        <mxCell id="-mNEIIxIsV1NqQYjcMDq-14" value="......" style="rounded=0;whiteSpace=wrap;html=1;" vertex="1" parent="-mNEIIxIsV1NqQYjcMDq-16">
          <mxGeometry x="15" y="170" width="110" height="10" as="geometry" />
        </mxCell>
        <mxCell id="-mNEIIxIsV1NqQYjcMDq-18" style="edgeStyle=orthogonalEdgeStyle;rounded=0;orthogonalLoop=1;jettySize=auto;html=1;entryX=0;entryY=0.5;entryDx=0;entryDy=0;startArrow=classic;startFill=1;" edge="1" parent="-mNEIIxIsV1NqQYjcMDq-21" source="-mNEIIxIsV1NqQYjcMDq-6" target="-mNEIIxIsV1NqQYjcMDq-4">
          <mxGeometry relative="1" as="geometry" />
        </mxCell>
        <mxCell id="-mNEIIxIsV1NqQYjcMDq-19" value="换页" style="edgeLabel;html=1;align=center;verticalAlign=middle;resizable=0;points=[];" vertex="1" connectable="0" parent="-mNEIIxIsV1NqQYjcMDq-18">
          <mxGeometry x="-0.1241" y="-1" relative="1" as="geometry">
            <mxPoint x="6" y="-1" as="offset" />
          </mxGeometry>
        </mxCell>
        <mxCell id="-mNEIIxIsV1NqQYjcMDq-22" value="SQL模块" style="rounded=0;whiteSpace=wrap;html=1;labelPosition=center;verticalLabelPosition=top;align=center;verticalAlign=bottom;" vertex="1" parent="1">
          <mxGeometry x="60" y="460" width="290" height="260" as="geometry" />
        </mxCell>
        <mxCell id="-mNEIIxIsV1NqQYjcMDq-25" style="edgeStyle=orthogonalEdgeStyle;rounded=0;orthogonalLoop=1;jettySize=auto;html=1;" edge="1" parent="1" source="-mNEIIxIsV1NqQYjcMDq-23" target="-mNEIIxIsV1NqQYjcMDq-24">
          <mxGeometry relative="1" as="geometry" />
        </mxCell>
        <mxCell id="-mNEIIxIsV1NqQYjcMDq-23" value="SQL前端" style="rounded=0;whiteSpace=wrap;html=1;" vertex="1" parent="1">
          <mxGeometry x="90" y="510" width="80" height="50" as="geometry" />
        </mxCell>
        <mxCell id="-mNEIIxIsV1NqQYjcMDq-29" style="edgeStyle=orthogonalEdgeStyle;rounded=0;orthogonalLoop=1;jettySize=auto;html=1;" edge="1" parent="1" source="-mNEIIxIsV1NqQYjcMDq-24" target="-mNEIIxIsV1NqQYjcMDq-26">
          <mxGeometry relative="1" as="geometry" />
        </mxCell>
        <mxCell id="-mNEIIxIsV1NqQYjcMDq-24" value="SQL后端" style="rounded=0;whiteSpace=wrap;html=1;" vertex="1" parent="1">
          <mxGeometry x="240" y="510" width="80" height="50" as="geometry" />
        </mxCell>
        <mxCell id="-mNEIIxIsV1NqQYjcMDq-31" style="edgeStyle=orthogonalEdgeStyle;rounded=0;orthogonalLoop=1;jettySize=auto;html=1;" edge="1" parent="1" source="-mNEIIxIsV1NqQYjcMDq-26" target="-mNEIIxIsV1NqQYjcMDq-30">
          <mxGeometry relative="1" as="geometry" />
        </mxCell>
        <mxCell id="-mNEIIxIsV1NqQYjcMDq-26" value="虚拟机" style="rounded=0;whiteSpace=wrap;html=1;" vertex="1" parent="1">
          <mxGeometry x="240" y="630" width="80" height="45" as="geometry" />
        </mxCell>
        <mxCell id="-mNEIIxIsV1NqQYjcMDq-32" style="edgeStyle=orthogonalEdgeStyle;rounded=0;orthogonalLoop=1;jettySize=auto;html=1;entryX=0.5;entryY=1;entryDx=0;entryDy=0;" edge="1" parent="1" source="-mNEIIxIsV1NqQYjcMDq-30" target="-mNEIIxIsV1NqQYjcMDq-3">
          <mxGeometry relative="1" as="geometry">
            <Array as="points">
              <mxPoint x="130" y="760" />
              <mxPoint x="575" y="760" />
            </Array>
          </mxGeometry>
        </mxCell>
        <mxCell id="-mNEIIxIsV1NqQYjcMDq-30" value="执行引擎" style="rounded=0;whiteSpace=wrap;html=1;dashed=1;" vertex="1" parent="1">
          <mxGeometry x="90" y="630" width="80" height="45" as="geometry" />
        </mxCell>
        <mxCell id="-mNEIIxIsV1NqQYjcMDq-52" style="edgeStyle=orthogonalEdgeStyle;rounded=0;orthogonalLoop=1;jettySize=auto;html=1;entryX=0.5;entryY=0;entryDx=0;entryDy=0;" edge="1" parent="1" source="-mNEIIxIsV1NqQYjcMDq-51" target="-mNEIIxIsV1NqQYjcMDq-34">
          <mxGeometry relative="1" as="geometry" />
        </mxCell>
        <mxCell id="-mNEIIxIsV1NqQYjcMDq-51" value="CSDB Client" style="rounded=1;whiteSpace=wrap;html=1;" vertex="1" parent="1">
          <mxGeometry x="340" y="170" width="120" height="60" as="geometry" />
        </mxCell>
      </root>
    </mxGraphModel>
  </diagram>
</mxfile>
